<?xml version="1.0" encoding="UTF-8"?>
<!DOCTYPE svg PUBLIC "-//W3C//DTD SVG 1.1//EN" "http://www.w3.org/Graphics/SVG/1.1/DTD/svg11.dtd">
<svg xmlns="http://www.w3.org/2000/svg" version="1.1" width="4500px" height="4500px" style="shape-rendering:geometricPrecision; text-rendering:geometricPrecision; image-rendering:optimizeQuality; fill-rule:evenodd; clip-rule:evenodd" xmlns:xlink="http://www.w3.org/1999/xlink">
<g><path style="opacity:0.994" fill="#fefffe" d="M 493.5,1624.5 C 538.083,1621.61 569.916,1640.28 589,1680.5C 597.67,1707.46 594.67,1733.12 580,1757.5C 575.245,1764.68 570.245,1771.68 565,1778.5C 521.667,1822.5 478.333,1866.5 435,1910.5C 369.203,1989.39 352.537,2077.72 385,2175.5C 419.836,2258.67 480.67,2312.5 567.5,2337C 654.173,2355.33 731.507,2336.33 799.5,2280C 854.752,2225.75 909.752,2171.08 964.5,2116C 1002.25,2078.57 1044.25,2046.9 1090.5,2021C 1186.99,1969.95 1287.99,1958.61 1393.5,1987C 1602.97,2047.99 1715.3,2187.49 1730.5,2405.5C 1728.34,2520.38 1690.51,2621.38 1617,2708.5C 1573.23,2758.27 1526.73,2805.44 1477.5,2850C 1463.82,2860.84 1448.49,2868.51 1431.5,2873C 1395.52,2878.59 1366.35,2867.09 1344,2838.5C 1324.17,2812.83 1320.17,2784.83 1332,2754.5C 1340.29,2736.91 1351.29,2721.24 1365,2707.5C 1401,2670.83 1437,2634.17 1473,2597.5C 1547.85,2515.9 1567.19,2422.57 1531,2317.5C 1489.4,2222.92 1417.23,2169.09 1314.5,2156C 1239.19,2150.88 1172.85,2172.55 1115.5,2221C 1064.89,2271.61 1014.22,2322.28 963.5,2373C 937.299,2398.21 909.632,2421.55 880.5,2443C 753.616,2529.69 617.616,2547.36 472.5,2496C 380.238,2458.07 307.072,2397.23 253,2313.5C 188.179,2204.75 172.179,2089.08 205,1966.5C 227.784,1888.89 267.451,1821.56 324,1764.5C 362.223,1725.61 401.057,1687.44 440.5,1650C 456.138,1637.18 473.804,1628.68 493.5,1624.5 Z"/></g>
<g><path style="opacity:0.994" fill="#fefffe" d="M 1231.5,1624.5 C 1377.35,1614.84 1515.35,1643 1645.5,1709C 1662.4,1718.23 1677.23,1730.07 1690,1744.5C 1714.28,1779.55 1713.95,1814.55 1689,1849.5C 1667.6,1876.6 1639.77,1887.1 1605.5,1881C 1594.2,1879.09 1583.2,1876.09 1572.5,1872C 1497.36,1836.13 1418.36,1813.8 1335.5,1805C 1213.93,1794.48 1100.27,1819.48 994.5,1880C 949.296,1906.61 907.296,1937.61 868.5,1973C 819.86,2021.97 770.86,2070.64 721.5,2119C 711.5,2128.33 701.5,2137.67 691.5,2147C 659.044,2175.49 623.377,2180.16 584.5,2161C 547.922,2136.66 533.755,2102.83 542,2059.5C 544.485,2050.69 548.485,2042.69 554,2035.5C 604.406,1980.76 655.906,1926.92 708.5,1874C 757.774,1825.36 811.108,1782.03 868.5,1744C 962.041,1686.03 1063.37,1648.37 1172.5,1631C 1192.27,1628.34 1211.93,1626.17 1231.5,1624.5 Z"/></g>
<g><path style="opacity:0.985" fill="#fefffe" d="M 2107.5,1905.5 C 2145.77,1903.28 2183.1,1908.12 2219.5,1920C 2226.38,1922.84 2232.21,1927.01 2237,1932.5C 2237.79,1946.67 2234.79,1960 2228,1972.5C 2226.5,1975.33 2224.33,1977.5 2221.5,1979C 2216.79,1979.5 2212.13,1979.16 2207.5,1978C 2175.84,1968.33 2143.51,1964.67 2110.5,1967C 2100.26,1967.64 2090.59,1970.31 2081.5,1975C 2070.12,1982.82 2067.28,1992.99 2073,2005.5C 2080.95,2013.39 2090.45,2018.56 2101.5,2021C 2126.56,2028.13 2151.56,2035.46 2176.5,2043C 2240.74,2063.64 2263.24,2106.47 2244,2171.5C 2235.73,2191.77 2221.9,2206.94 2202.5,2217C 2173.05,2230.89 2142.05,2236.56 2109.5,2234C 2073.09,2233.39 2038.42,2225.39 2005.5,2210C 2001.39,2207.55 1997.55,2204.72 1994,2201.5C 1992.77,2199.13 1991.93,2196.63 1991.5,2194C 1993.02,2179.78 1997.52,2166.61 2005,2154.5C 2009.84,2150.12 2015.34,2149.29 2021.5,2152C 2041.29,2159.16 2061.46,2164.99 2082,2169.5C 2107.57,2174.88 2133.07,2174.72 2158.5,2169C 2174.64,2162.94 2180.81,2151.44 2177,2134.5C 2174.74,2128.23 2170.9,2123.06 2165.5,2119C 2158.23,2114.53 2150.56,2110.86 2142.5,2108C 2113.94,2100.44 2085.61,2092.11 2057.5,2083C 2011.02,2064.89 1991.85,2031.06 2000,1981.5C 2006.94,1952.55 2024.11,1932.05 2051.5,1920C 2069.59,1912.42 2088.25,1907.59 2107.5,1905.5 Z"/></g>
<g><path style="opacity:0.981" fill="#fefffe" d="M 3268.5,1907.5 C 3281.54,1907.17 3294.54,1907.67 3307.5,1909C 3312.15,1909.74 3315.98,1911.91 3319,1915.5C 3361.62,2017.37 3403.45,2119.54 3444.5,2222C 3444.3,2224.41 3443.3,2226.41 3441.5,2228C 3434.14,2230.95 3426.47,2232.11 3418.5,2231.5C 3411.02,2231.81 3403.68,2230.97 3396.5,2229C 3394.62,2227.46 3393.12,2225.62 3392,2223.5C 3382.69,2199.9 3373.19,2176.4 3363.5,2153C 3310.16,2152.17 3256.83,2152.33 3203.5,2153.5C 3193.84,2178.67 3183.5,2203.5 3172.5,2228C 3169.75,2229.75 3166.75,2230.75 3163.5,2231C 3154.5,2231.67 3145.5,2231.67 3136.5,2231C 3125.62,2230.13 3122.12,2224.63 3126,2214.5C 3167.06,2114.72 3208.39,2015.05 3250,1915.5C 3255.24,1910.49 3261.4,1907.83 3268.5,1907.5 Z M 3283.5,1948.5 C 3304.31,2002.74 3325.64,2056.9 3347.5,2111C 3305.17,2111.67 3262.83,2111.67 3220.5,2111C 3241.05,2060.68 3261.22,2010.18 3281,1959.5C 3282.15,1955.89 3282.98,1952.22 3283.5,1948.5 Z"/></g>
<g><path style="opacity:0.981" fill="#fefffe" d="M 4134.5,1907.5 C 4147.54,1907.17 4160.54,1907.67 4173.5,1909C 4178.16,1909.75 4182,1911.91 4185,1915.5C 4227.62,2017.36 4269.45,2119.52 4310.5,2222C 4308.59,2227.55 4304.59,2230.55 4298.5,2231C 4289.17,2231.67 4279.83,2231.67 4270.5,2231C 4263.79,2230.96 4259.29,2227.79 4257,2221.5C 4247.96,2198.6 4238.8,2175.76 4229.5,2153C 4176.16,2152.17 4122.83,2152.33 4069.5,2153.5C 4059.55,2178.55 4049.22,2203.38 4038.5,2228C 4035.75,2229.75 4032.75,2230.75 4029.5,2231C 4020.5,2231.67 4011.5,2231.67 4002.5,2231C 3993.5,2230.68 3989.66,2226.18 3991,2217.5C 4032,2117.83 4073,2018.17 4114,1918.5C 4118.97,1911.26 4125.81,1907.6 4134.5,1907.5 Z M 4149.5,1947.5 C 4169.73,2002.34 4191.06,2056.84 4213.5,2111C 4171.16,2111.83 4128.83,2111.67 4086.5,2110.5C 4108.16,2058.17 4129,2005.5 4149,1952.5C 4149.49,1950.87 4149.66,1949.2 4149.5,1947.5 Z"/></g>
<g><path style="opacity:0.989" fill="#fefffe" d="M 2348.5,1908.5 C 2439.22,1908.01 2529.89,1908.51 2620.5,1910C 2623.87,1912.36 2626.04,1915.53 2627,1919.5C 2629,1932.5 2629,1945.5 2627,1958.5C 2626.06,1962.21 2624.23,1965.37 2621.5,1968C 2587.25,1969.49 2552.92,1969.99 2518.5,1969.5C 2518.67,2053.5 2518.5,2137.5 2518,2221.5C 2515.58,2226.26 2511.74,2229.09 2506.5,2230C 2492.55,2231.58 2478.55,2231.91 2464.5,2231C 2456.48,2230.91 2450.64,2227.41 2447,2220.5C 2446.5,2136.83 2446.33,2053.17 2446.5,1969.5C 2413.17,1969.67 2379.83,1969.5 2346.5,1969C 2341.81,1966.63 2338.98,1962.8 2338,1957.5C 2337.33,1945.5 2337.33,1933.5 2338,1921.5C 2338.83,1914.85 2342.33,1910.52 2348.5,1908.5 Z"/></g>
<g><path style="opacity:0.986" fill="#fefffe" d="M 2757.5,1908.5 C 2806.5,1908.33 2855.5,1908.5 2904.5,1909C 2928.96,1909.53 2951.96,1915.53 2973.5,1927C 3000.8,1945.59 3014.13,1971.59 3013.5,2005C 3012.52,2043.99 2993.85,2070.32 2957.5,2084C 2970.15,2089.65 2979.98,2098.48 2987,2110.5C 3001.61,2143.38 3015.94,2176.38 3030,2209.5C 3036.43,2222.48 3032.6,2229.65 3018.5,2231C 3004.83,2231.67 2991.17,2231.67 2977.5,2231C 2967.24,2230.29 2960.41,2225.13 2957,2215.5C 2944.78,2186.17 2931.78,2157.17 2918,2128.5C 2912.56,2119.19 2904.39,2114.02 2893.5,2113C 2867.84,2112.5 2842.17,2112.33 2816.5,2112.5C 2816.67,2148.5 2816.5,2184.5 2816,2220.5C 2812.35,2227.42 2806.51,2230.92 2798.5,2231C 2786.5,2231.67 2774.5,2231.67 2762.5,2231C 2753.95,2230.97 2748.12,2227.14 2745,2219.5C 2744.33,2120.17 2744.33,2020.83 2745,1921.5C 2746.69,1914.64 2750.86,1910.31 2757.5,1908.5 Z M 2816.5,1969.5 C 2843.84,1969.33 2871.17,1969.5 2898.5,1970C 2926.57,1970.73 2940.23,1985.07 2939.5,2013C 2940.46,2037.69 2928.8,2051.69 2904.5,2055C 2875.17,2055.5 2845.84,2055.67 2816.5,2055.5C 2816.5,2026.83 2816.5,1998.17 2816.5,1969.5 Z"/></g>
<g><path style="opacity:0.984" fill="#fefffe" d="M 3579.5,1908.5 C 3626.83,1908.33 3674.17,1908.5 3721.5,1909C 3836.3,1912.79 3891.13,1971.96 3886,2086.5C 3882.08,2156.73 3846.58,2201.89 3779.5,2222C 3762.78,2226.44 3745.78,2229.1 3728.5,2230C 3678.5,2230.67 3628.5,2230.67 3578.5,2230C 3573.76,2228.93 3570.6,2226.1 3569,2221.5C 3568.33,2120.5 3568.33,2019.5 3569,1918.5C 3570.46,1912.87 3573.96,1909.54 3579.5,1908.5 Z M 3619.5,1951.5 C 3656.18,1951.11 3692.85,1951.61 3729.5,1953C 3799.11,1960.28 3834.11,1998.95 3834.5,2069C 3834.97,2138.19 3800.97,2177.19 3732.5,2186C 3694.86,2187.43 3657.19,2187.93 3619.5,2187.5C 3619.5,2108.83 3619.5,2030.17 3619.5,1951.5 Z"/></g>
<g><path style="opacity:0.994" fill="#fefffe" d="M 1284.5,2323.5 C 1320.85,2323.42 1348.35,2338.76 1367,2369.5C 1381.48,2397.56 1382.15,2425.9 1369,2454.5C 1366.75,2457.33 1364.75,2460.33 1363,2463.5C 1310.59,2519.58 1257.09,2574.75 1202.5,2629C 1160.94,2669.57 1116.61,2706.57 1069.5,2740C 987.986,2794.97 898.986,2833.31 802.5,2855C 637.728,2890.42 477.395,2876.09 321.5,2812C 295.009,2801.09 269.675,2788.09 245.5,2773C 212.329,2746.18 202.496,2712.34 216,2671.5C 229.484,2638.37 253.984,2618.87 289.5,2613C 303.922,2611.23 317.922,2612.9 331.5,2618C 390.818,2649.66 453.485,2672 519.5,2685C 724.451,2717 902.784,2663 1054.5,2523C 1077.07,2500.44 1098.9,2477.27 1120,2453.5C 1156.89,2416.61 1194.39,2380.44 1232.5,2345C 1247.71,2332.56 1265.05,2325.39 1284.5,2323.5 Z"/></g>
<g><path style="opacity:0.97" fill="#fefffe" d="M 2576.5,2384.5 C 2604.88,2382.17 2632.21,2386.34 2658.5,2397C 2686.12,2411.98 2701.96,2435.15 2706,2466.5C 2709.34,2489.98 2707.34,2512.98 2700,2535.5C 2687.37,2565.78 2664.87,2583.95 2632.5,2590C 2612.64,2593.35 2592.64,2594.35 2572.5,2593C 2510.4,2586.23 2479.07,2551.57 2478.5,2489C 2479.75,2424.59 2512.41,2389.75 2576.5,2384.5 Z M 2578.5,2412.5 C 2650.48,2407.3 2681.64,2440.3 2672,2511.5C 2665.64,2541.2 2647.47,2558.7 2617.5,2564C 2536.49,2574.66 2502.66,2539.83 2516,2459.5C 2522.67,2436.16 2537.84,2421.66 2561.5,2416C 2567.3,2414.82 2572.97,2413.65 2578.5,2412.5 Z"/></g>
<g><path style="opacity:0.968" fill="#fefffe" d="M 4222.5,2384.5 C 4246.13,2383.18 4269.13,2386.35 4291.5,2394C 4296.7,2395.37 4300.03,2398.54 4301.5,2403.5C 4301.02,2410.44 4298.69,2416.61 4294.5,2422C 4292.17,2422.67 4289.83,2422.67 4287.5,2422C 4266.17,2414.05 4244.17,2411.05 4221.5,2413C 4210.12,2413.68 4200.62,2418.18 4193,2426.5C 4185.26,2439.75 4187.43,2450.91 4199.5,2460C 4205.26,2462.92 4211.26,2465.25 4217.5,2467C 4236.73,2471.56 4255.73,2476.89 4274.5,2483C 4306.73,2497.31 4317.57,2521.48 4307,2555.5C 4298.18,2573.97 4283.68,2585.47 4263.5,2590C 4227.64,2597.52 4192.97,2593.85 4159.5,2579C 4157.04,2577.54 4154.87,2575.71 4153,2573.5C 4152.18,2565.95 4153.85,2558.95 4158,2552.5C 4159.19,2551.57 4160.53,2550.9 4162,2550.5C 4174.9,2555.47 4188.07,2559.63 4201.5,2563C 4221.71,2568.09 4241.71,2567.42 4261.5,2561C 4277.85,2552.13 4282.02,2539.3 4274,2522.5C 4266.05,2514.61 4256.55,2509.44 4245.5,2507C 4225.81,2502.91 4206.47,2497.58 4187.5,2491C 4162.79,2479.75 4152.62,2460.58 4157,2433.5C 4161.66,2413.17 4173.82,2399.34 4193.5,2392C 4203.01,2388.37 4212.68,2385.87 4222.5,2384.5 Z"/></g>
<g><path style="opacity:0.973" fill="#fefffe" d="M 3799.5,2385.5 C 3805.56,2385.34 3811.56,2385.84 3817.5,2387C 3820.1,2387.93 3821.6,2389.77 3822,2392.5C 3822.67,2456.83 3822.67,2521.17 3822,2585.5C 3821.65,2587.85 3820.49,2589.68 3818.5,2591C 3811.23,2592.51 3803.9,2592.85 3796.5,2592C 3793.97,2591.48 3791.8,2590.32 3790,2588.5C 3789.33,2522.5 3789.33,2456.5 3790,2390.5C 3792.6,2387.62 3795.77,2385.95 3799.5,2385.5 Z"/></g>
<g><path style="opacity:0.973" fill="#fefffe" d="M 1997.5,2386.5 C 2030.83,2386.33 2064.17,2386.5 2097.5,2387C 2135.53,2389.7 2155.2,2410.03 2156.5,2448C 2155.93,2484.24 2137.6,2504.24 2101.5,2508C 2075.84,2508.5 2050.17,2508.67 2024.5,2508.5C 2024.67,2534.84 2024.5,2561.17 2024,2587.5C 2022.66,2590.09 2020.49,2591.59 2017.5,2592C 2011.17,2592.67 2004.83,2592.67 1998.5,2592C 1995.51,2591.59 1993.34,2590.09 1992,2587.5C 1991.33,2522.5 1991.33,2457.5 1992,2392.5C 1993.02,2389.65 1994.85,2387.65 1997.5,2386.5 Z M 2024.5,2414.5 C 2047.84,2414.33 2071.17,2414.5 2094.5,2415C 2114.31,2417.14 2123.64,2428.14 2122.5,2448C 2123.33,2468.84 2113.33,2479.84 2092.5,2481C 2069.84,2481.5 2047.17,2481.67 2024.5,2481.5C 2024.5,2459.17 2024.5,2436.83 2024.5,2414.5 Z"/></g>
<g><path style="opacity:0.979" fill="#fefffe" d="M 2243.5,2386.5 C 2276.83,2386.33 2310.17,2386.5 2343.5,2387C 2386.03,2390.25 2405.53,2413.09 2402,2455.5C 2398.81,2475.43 2387.65,2488.26 2368.5,2494C 2372.87,2495.71 2376.71,2498.21 2380,2501.5C 2384.76,2508.01 2388.76,2515.01 2392,2522.5C 2401.1,2543.46 2409.6,2564.63 2417.5,2586C 2417.65,2588.03 2416.98,2589.7 2415.5,2591C 2406.03,2593.29 2396.69,2592.96 2387.5,2590C 2386.33,2588.83 2385.17,2587.67 2384,2586.5C 2375.14,2563.79 2365.47,2541.45 2355,2519.5C 2350.69,2513.59 2344.86,2510.09 2337.5,2509C 2315.17,2508.5 2292.84,2508.33 2270.5,2508.5C 2270.67,2535.17 2270.5,2561.84 2270,2588.5C 2269.17,2589.33 2268.33,2590.17 2267.5,2591C 2260.23,2592.51 2252.9,2592.85 2245.5,2592C 2242.97,2591.48 2240.8,2590.32 2239,2588.5C 2238.33,2522.5 2238.33,2456.5 2239,2390.5C 2240.4,2388.93 2241.9,2387.6 2243.5,2386.5 Z M 2270.5,2414.5 C 2294.17,2414.33 2317.84,2414.5 2341.5,2415C 2360.28,2417.62 2369.61,2428.45 2369.5,2447.5C 2369.73,2468.44 2359.4,2479.6 2338.5,2481C 2315.84,2481.5 2293.17,2481.67 2270.5,2481.5C 2270.5,2459.17 2270.5,2436.83 2270.5,2414.5 Z"/></g>
<g><path style="opacity:0.974" fill="#fefffe" d="M 2804.5,2386.5 C 2837.5,2386.33 2870.5,2386.5 2903.5,2387C 2919.05,2387.85 2933.05,2392.85 2945.5,2402C 2958.06,2414.68 2963.73,2430.01 2962.5,2448C 2962.15,2483.69 2944.15,2503.69 2908.5,2508C 2882.84,2508.5 2857.17,2508.67 2831.5,2508.5C 2831.67,2534.84 2831.5,2561.17 2831,2587.5C 2826.64,2591.91 2821.31,2593.58 2815,2592.5C 2809.94,2592.82 2805.1,2591.98 2800.5,2590C 2799.87,2589.25 2799.37,2588.42 2799,2587.5C 2798.33,2522.17 2798.33,2456.83 2799,2391.5C 2800.11,2388.89 2801.94,2387.22 2804.5,2386.5 Z M 2831.5,2414.5 C 2854.84,2414.33 2878.17,2414.5 2901.5,2415C 2921.11,2417.21 2930.45,2428.21 2929.5,2448C 2930.04,2468.59 2920.04,2479.59 2899.5,2481C 2876.84,2481.5 2854.17,2481.67 2831.5,2481.5C 2831.5,2459.17 2831.5,2436.83 2831.5,2414.5 Z"/></g>
<g><path style="opacity:0.976" fill="#fefffe" d="M 3050.5,2386.5 C 3098.17,2386.33 3145.83,2386.5 3193.5,2387C 3194.33,2387.83 3195.17,2388.67 3196,2389.5C 3198,2396.83 3198,2404.17 3196,2411.5C 3195.1,2412.7 3193.93,2413.53 3192.5,2414C 3154.17,2414.5 3115.83,2414.67 3077.5,2414.5C 3077.5,2433.83 3077.5,2453.17 3077.5,2472.5C 3112.83,2472.33 3148.17,2472.5 3183.5,2473C 3185.29,2473.78 3186.79,2474.95 3188,2476.5C 3188.67,2483.17 3188.67,2489.83 3188,2496.5C 3187.53,2497.93 3186.7,2499.1 3185.5,2500C 3149.5,2500.5 3113.5,2500.67 3077.5,2500.5C 3077.5,2521.83 3077.5,2543.17 3077.5,2564.5C 3116.5,2564.33 3155.5,2564.5 3194.5,2565C 3195.7,2565.9 3196.53,2567.07 3197,2568.5C 3197.67,2574.83 3197.67,2581.17 3197,2587.5C 3196.53,2588.93 3195.7,2590.1 3194.5,2591C 3146.17,2591.67 3097.83,2591.67 3049.5,2591C 3046.91,2589.66 3045.41,2587.49 3045,2584.5C 3044.33,2521.17 3044.33,2457.83 3045,2394.5C 3045.49,2390.85 3047.32,2388.19 3050.5,2386.5 Z"/></g>
<g><path style="opacity:0.97" fill="#fefffe" d="M 3295.5,2386.5 C 3328.83,2386.33 3362.17,2386.5 3395.5,2387C 3442.66,2392.8 3461.16,2418.97 3451,2465.5C 3445.32,2479.85 3435.15,2489.35 3420.5,2494C 3425.47,2496.07 3429.64,2499.24 3433,2503.5C 3437.17,2509.85 3440.84,2516.51 3444,2523.5C 3452.89,2544.19 3461.39,2565.02 3469.5,2586C 3469.19,2589.64 3467.19,2591.64 3463.5,2592C 3457.17,2592.67 3450.83,2592.67 3444.5,2592C 3441.03,2591.68 3438.19,2590.18 3436,2587.5C 3426.81,2564.12 3416.81,2541.12 3406,2518.5C 3401.78,2513.14 3396.28,2509.97 3389.5,2509C 3367.17,2508.5 3344.84,2508.33 3322.5,2508.5C 3322.67,2534.84 3322.5,2561.17 3322,2587.5C 3320.66,2590.09 3318.49,2591.59 3315.5,2592C 3309.17,2592.67 3302.83,2592.67 3296.5,2592C 3293.51,2591.59 3291.34,2590.09 3290,2587.5C 3289.33,2522.5 3289.33,2457.5 3290,2392.5C 3290.73,2389.31 3292.56,2387.31 3295.5,2386.5 Z M 3322.5,2414.5 C 3345.84,2414.33 3369.17,2414.5 3392.5,2415C 3412.04,2417.04 3421.37,2427.87 3420.5,2447.5C 3421.57,2468.59 3411.57,2479.76 3390.5,2481C 3367.84,2481.5 3345.17,2481.67 3322.5,2481.5C 3322.5,2459.17 3322.5,2436.83 3322.5,2414.5 Z"/></g>
<g><path style="opacity:0.969" fill="#fefffe" d="M 3529.5,2386.5 C 3587.17,2386.33 3644.83,2386.5 3702.5,2387C 3705.45,2390.96 3706.78,2395.46 3706.5,2400.5C 3706.44,2403.9 3705.94,2407.24 3705,2410.5C 3704.5,2412.33 3703.33,2413.5 3701.5,2414C 3678.5,2414.5 3655.5,2414.67 3632.5,2414.5C 3632.67,2471.83 3632.5,2529.17 3632,2586.5C 3631.22,2588.29 3630.05,2589.79 3628.5,2591C 3621.25,2592.56 3613.91,2592.89 3606.5,2592C 3603.51,2591.59 3601.34,2590.09 3600,2587.5C 3599.5,2529.83 3599.33,2472.17 3599.5,2414.5C 3576.16,2414.67 3552.83,2414.5 3529.5,2414C 3526.09,2410.21 3524.75,2405.71 3525.5,2400.5C 3524.77,2395.09 3526.1,2390.43 3529.5,2386.5 Z"/></g>
<g><path style="opacity:0.978" fill="#fefffe" d="M 3935.5,2386.5 C 3982.83,2386.33 4030.17,2386.5 4077.5,2387C 4078.42,2387.37 4079.25,2387.87 4080,2388.5C 4081.59,2395.73 4081.93,2403.06 4081,2410.5C 4080.5,2412.33 4079.33,2413.5 4077.5,2414C 4039.17,2414.5 4000.83,2414.67 3962.5,2414.5C 3962.5,2433.83 3962.5,2453.17 3962.5,2472.5C 3997.83,2472.33 4033.17,2472.5 4068.5,2473C 4069.93,2473.47 4071.1,2474.3 4072,2475.5C 4073.54,2482.08 4073.88,2488.75 4073,2495.5C 4072.29,2497.08 4071.46,2498.58 4070.5,2500C 4034.5,2500.5 3998.5,2500.67 3962.5,2500.5C 3962.5,2521.83 3962.5,2543.17 3962.5,2564.5C 4001.17,2564.33 4039.83,2564.5 4078.5,2565C 4080.77,2566.51 4081.93,2568.68 4082,2571.5C 4082.79,2577.24 4082.46,2582.9 4081,2588.5C 4080.17,2589.33 4079.33,2590.17 4078.5,2591C 4030.5,2591.67 3982.5,2591.67 3934.5,2591C 3933.07,2590.53 3931.9,2589.7 3931,2588.5C 3929.34,2522.92 3929.01,2457.25 3930,2391.5C 3931.11,2388.89 3932.94,2387.22 3935.5,2386.5 Z"/></g>
</svg>
